<?xml version="1.0" standalone="no"?>
<!DOCTYPE svg PUBLIC "-//W3C//DTD SVG 1.1//EN" "http://www.w3.org/Graphics/SVG/1.1/DTD/svg11.dtd" >
<!--
2013-9-30: Created.
-->
<svg>
<metadata>
Created by iconfont
</metadata>
<defs>

<font id="iconfont" horiz-adv-x="1024" >
  <font-face
    font-family="iconfont"
    font-weight="500"
    font-stretch="normal"
    units-per-em="1024"
    ascent="896"
    descent="-128"
  />
    <missing-glyph />
    
    <glyph glyph-name="x" unicode="x" horiz-adv-x="1001"
d="M281 543q-27 -1 -53 -1h-83q-18 0 -36.5 -6t-32.5 -18.5t-23 -32t-9 -45.5v-76h912v41q0 16 -0.5 30t-0.5 18q0 13 -5 29t-17 29.5t-31.5 22.5t-49.5 9h-133v-97h-438v97zM955 310v-52q0 -23 0.5 -52t0.5 -58t-10.5 -47.5t-26 -30t-33 -16t-31.5 -4.5q-14 -1 -29.5 -0.5
t-29.5 0.5h-32l-45 128h-439l-44 -128h-29h-34q-20 0 -45 1q-25 0 -41 9.5t-25.5 23t-13.5 29.5t-4 30v167h911zM163 247q-12 0 -21 -8.5t-9 -21.5t9 -21.5t21 -8.5q13 0 22 8.5t9 21.5t-9 21.5t-22 8.5zM316 123q-8 -26 -14 -48q-5 -19 -10.5 -37t-7.5 -25t-3 -15t1 -14.5
t9.5 -10.5t21.5 -4h37h67h81h80h64h36q23 0 34 12t2 38q-5 13 -9.5 30.5t-9.5 34.5q-5 19 -11 39h-368zM336 498v228q0 11 2.5 23t10 21.5t20.5 15.5t34 6h188q31 0 51.5 -14.5t20.5 -52.5v-227h-327z" />
    

    
    <glyph glyph-name="zhengque" unicode="&#58880;" d="M514.048 836.608q93.184 0 174.592-35.328t142.336-96.768 96.256-143.36 35.328-175.104-35.328-175.616-96.256-143.872-142.336-96.768-174.592-35.328-175.104 35.328-142.848 96.768-96.256 143.872-35.328 175.616 35.328 175.104 96.256 143.36 142.848 96.768 175.104 35.328zM795.648 472.064q18.432 18.432 19.456 45.568t-17.408 45.568-45.056 17.92-45.056-18.944l-288.768-288.768-99.328 98.304q-18.432 18.432-45.056 18.944t-45.056-17.92-18.944-43.52 17.92-43.52l142.336-143.36q18.432-18.432 48.128-17.92t48.128 18.944l-4.096-4.096z"  horiz-adv-x="1024" />

    
    <glyph glyph-name="msnui-menu-right" unicode="&#58968;" d="M275.196 677.649q-13.382 13.382-20.074 30.588t-6.692 34.89 6.692 34.412 20.074 30.11q26.765 27.721 64.045 27.721t64.045-27.721l354.633-357.5q13.382-11.471 19.118-28.676t4.78-36.324-8.603-37.757-21.029-32.022l-348.898-351.765q-26.765-27.721-64.045-27.721t-64.045 27.721q-13.382 13.382-20.074 30.11t-6.692 34.412 6.692 34.89 20.074 30.588l288.676 291.545z"  horiz-adv-x="1024" />

    
    <glyph glyph-name="icon" unicode="&#58895;" d="M527.034926-46.620551c-247.174496 0-447.543989 200.370517-447.543989 447.538873 0 190.783161 119.585609 353.238137 287.701514 417.622516l0-69.242014c-131.960451-60.646242-223.765343-193.624882-223.765343-348.381525 0-211.845872 171.759899-383.606795 383.606795-383.606795 211.845872 0 383.605771 171.762969 383.605771 383.606795 0 154.75562-91.811032 287.736307-223.771483 348.411201L686.868191 818.540837c168.113859-64.384379 287.702538-226.840378 287.702538-417.622516C974.573799 153.749966 774.203282-46.620551 527.034926-46.620551L527.034926-46.620551zM495.066841 848.461287l63.931055 0L558.997895 399.768125l-63.931055 0L495.066841 848.461287 495.066841 848.461287z"  horiz-adv-x="1024" />

    
    <glyph glyph-name="fiveXing" unicode="&#58934;" d="M648.657455 497.477818L511.301818 896 370.036364 500.689455 0 497.477818 304.221091 244.92218200000002 194.885818-128 511.301818 98.39709100000005 827.717818-128 718.336 242.50181799999996 1024 497.477818Z"  horiz-adv-x="1024" />

    
    <glyph glyph-name="wenhao" unicode="&#58958;" d="M512.128 218.62400000000002c-19.296 0-38.496-7.936-52.16-21.568s-21.6-32.8-21.6-52.064 7.936-38.464 21.6-52.064c13.632-13.632 32.832-21.568 52.16-21.568s38.496 7.936 52.16 21.568c13.632 13.632 21.6 32.8 21.6 52.064s-7.936 38.464-21.6 52.064c-13.632 13.632-32.832 21.568-52.16 21.568zM511.36 682.688c-49.728 0-89.92-15.232-120.544-45.632-30.624-30.464-48.48-72.416-49.472-111.072s80.64-30.624 83.648-11.552c3.2 20.224 16.576 52.896 32.16 67.68s35.008 22.208 58.176 22.208c24.064 0 43.2-7.104 57.376-21.312s21.312-31.296 21.312-51.2c0-14.368-4.032-27.52-12-39.456-5.184-7.552-21.12-23.488-47.68-47.84s-44.352-46.272-53.184-65.728-13.312-44.288-13.312-74.496c0-2.88 0.096-11.072 0.32-24.448l82.784 0c-0.448 28.224 1.696 47.84 6.336 58.784 4.64 10.976 16.576 25.472 35.776 43.456 37.12 34.784 61.376 62.336 72.736 82.496 11.328 20.192 16.96 41.664 16.96 64.288 0 40.896-15.424 76.768-46.4 107.584s-72.576 46.24-124.928 46.24zM512 896c-282.208 0-512-229.664-512-512.032s229.728-511.968 512-511.968c282.304 0 512 229.6 512 511.968s-229.632 512.032-512 512.032zM511.68-62.912000000000035c-246.848 0-447.584 200.768-447.584 447.456 0 246.848 200.768 447.552 447.584 447.552s447.648-200.672 447.648-447.552c0.032-246.72-200.8-447.456-447.648-447.456z"  horiz-adv-x="1024" />

    
    <glyph glyph-name="shang" unicode="&#58981;" d="M942.936 148.755c29.315 28.497 29.315 74.739 0 103.307l-378.011 367.236c-29.367 28.483-76.982 28.483-106.291 0l-377.997-367.236c-29.367-28.562-29.367-74.806 0-103.307 29.325-28.546 76.929-28.546 106.304 0l324.841 315.6 324.803-315.599c29.367-28.545 76.973-28.544 106.356 0l0 0z"  horiz-adv-x="1024" />

    
    <glyph glyph-name="xia" unicode="&#58982;" d="M52.335 634.928c-31.269-30.397-31.269-79.722 0-110.194l403.212-391.718c31.325-30.382 82.114-30.382 113.377 0l403.197 391.718c31.325 30.466 31.325 79.793 0 110.194-31.28 30.449-82.058 30.449-113.39 0l-346.497-336.64-346.457 336.64c-31.325 30.448-82.105 30.448-113.446 0l0 0z"  horiz-adv-x="1024" />

    
    <glyph glyph-name="zijin" unicode="&#58960;" d="M1000.831326 40.732691000000045c-5.100816-31.432544-13.892826-61.432309-32.66999-87.849621-36.946178-51.988852-87.871772-80.534693-153.992079-80.621284-205.894339-0.304075-411.767535 0.19634-617.64073-0.26078-87.372363-0.195333-160.113863 59.391378-181.300473 138.927253-13.458864 50.491633-16.584196 101.481667-12.829569 152.972117 13.545455 186.205956 129.28947 349.901264 300.648085 425.247543 1.866742 0.825635 3.690188 1.714704 5.534778 2.583635-7.401519 7.467973-14.717455 14.49997-21.620572 21.881352-33.537914 36.012807-52.987669 77.777876-59.348083 126.054389-7.293784 55.635744 33.90643 96.380851 83.70332 106.257263 26.287426 5.231709 51.881116 2.908854 76.388392-7.923079 3.646892-1.606968 5.687822-0.976666 8.510086 1.519371 60.368044 53.834449 156.619009 53.312889 216.574235-1.194151 3.21293-2.929999 5.361596-1.974477 8.596677-0.693735 46.583961 18.668422 90.671884 14.912788 129.55025-16.867127 28.740167-23.530609 37.575473-51.793519 29.891022-98.334184-4.12415-14.717455-5.57908-21.620572-11.526676-37.488882-12.242562-32.73443-35.68658-60.497931-61.800824-84.48566-2.540339-2.322855-5.122967-4.623558-7.662299-6.967557-0.26078-0.26078-0.347371-0.716893-0.433962-0.912226 15.042674-7.489117 30.454871-14.326788 45.042439-22.532798 126.857873-71.395311 208.000717-176.350688 245.901409-312.304647C1010.251625 186.302282 1012.726517 113.82156199999997 1000.831326 40.732691000000045L1000.831326 40.732691000000045zM908.835405 274.76005399999997c-31.584582 119.173423-101.395076 179.715656-204.939824 257.991934-11.200449 8.465784-78.277285 39.724139-78.0598 39.941623 2.127521 2.039924 32.73443 28.284054 63.992785 69.398683 8.46679 11.113858 30.630067 47.017923 34.189361 60.454635 5.883156 32.343764 5.340451 47.647218-18.625126 68.268972-32.387059 27.851099-65.209087 17.757202-104.04315 1.410628-2.670226-1.128704-4.472527-1.953333-7.141746 0.629295-49.970073 47.75596-130.178538 48.212073-180.474838 1.042113-2.36615-2.214113-48.841369 20.970132-70.744872 16.388863-23.704798-4.948778-62.842937-20.274384-56.352637-72.198796 5.297156-42.329924 22.749276-67.879313 50.70811-99.441743 5.730111-6.468149 48.429558-43.631811 46.888036-44.326553-142.79163-66.055867-291.595295-219.961354-302.883341-383.13611-3.125332-45.130037-4.340627-100.505001 6.859822-144.767113 17.64846-69.702759 86.309106-109.883011 159.115046-109.730973 171.553948 0.412818 343.12904-0.044302 514.682988 0.238629 55.09304 0.087598 114.072607 25.094282 144.874849 70.658281 15.629681 23.139943 20.253239 52.032147 24.507275 79.579171C941.287911 151.222846 925.39745 212.15574600000002 908.835405 274.76005399999997L908.835405 274.76005399999997zM569.02703 286.807282l32.517952 0 21.034572 0c18.277755 0 33.125097-14.739606 33.125097-32.908619 0-18.169013-14.826197-32.908619-33.125097-32.908619l-53.552525 0c0 0-0.022151 0-0.043296 0l-31.519135 0 0-35.556694 31.562431 0 32.517952 0 21.034572 0c18.2989 0 33.125097-14.738599 33.125097-32.907612 0-18.169013-14.826197-32.908619-33.125097-32.908619l-53.530374 0c-0.022151 0-0.044302 0-0.065447 0l-31.519135 0 0-22.445201c0-18.191164-14.804046-32.908619-33.103952-32.908619-18.277755 0-33.125097 14.717455-33.125097 32.908619l0 0.998817 0 21.446383-31.519135 0c0 0-0.022151 0-0.043296 0l-53.530374 0c-18.299907 0-33.125097 14.739606-33.125097 32.908619 0 18.169013 14.826197 32.907612 33.125097 32.907612l22.662685 0 30.867689 0 31.562431 0 0 35.556694-31.519135 0c-0.022151 0-0.022151 0-0.043296 0l-53.552525 0c-18.277755 0-33.103952 14.738599-33.103952 32.908619 0 18.169013 14.826197 32.908619 33.103952 32.908619l22.684836 0 30.867689 0 31.562431 0 0 25.658131-61.844119 60.694271c-0.608151 0.520553-1.215295 1.063257-1.801295 1.650264l-17.821642 17.626309-4.514816 4.428225 0.022151 0-15.629681 15.477643c-12.9806 12.807418-13.024902 33.646657-0.129887 46.518514 12.894009 12.872864 33.863134 12.938311 46.844741 0.108742l19.905868-19.667239 72.7415-71.417463 67.943753 66.685162 19.928019 19.688384c12.959455 12.807418 33.928581 12.764122 46.822589-0.108742 12.91616-12.894009 12.850713-33.733248-0.108742-46.540665l-15.628674-15.455492 0-0.021144-4.514816-4.428225-17.821642-17.626309c-0.586-0.564855-1.172-1.10756-1.801295-1.628113l-66.359942-65.122496 0-16.519756L569.02703 286.807282 569.02703 286.807282z"  horiz-adv-x="1024" />

    
    <glyph glyph-name="wuuiconsuotanhao" unicode="&#58910;" d="M512 896C230.4 896 0 665.6 0 384s230.4-512 512-512 512 230.4 512 512S793.6 896 512 896zM512 18.285714c-40.228571 0-73.142857 32.914286-73.142857 73.142857s32.914286 73.142857 73.142857 73.142857 73.142857-32.914286 73.142857-73.142857S552.228571 18.285714 512 18.285714zM585.142857 384c0-40.228571-32.914286-73.142857-73.142857-73.142857s-73.142857 32.914286-73.142857 73.142857L438.857143 676.571429c0 40.228571 32.914286 73.142857 73.142857 73.142857s73.142857-32.914286 73.142857-73.142857L585.142857 384z"  horiz-adv-x="1024" />

    
    <glyph glyph-name="icon_on_the_left" unicode="&#58915;" d="M616.896-43.52c12.576-13.024 29.856-20.384 47.936-20.48 40.8 1.696 72.576 36 71.136 76.8 0.096 21.12-8.256 41.376-23.168 56.32l-312.704 314.88 312.704 314.88c14.912 14.944 23.264 35.2 23.168 56.32 1.44 40.8-30.336 75.104-71.136 76.8-18.080-0.096-35.36-7.456-47.936-20.48l-369.856-371.2c-30.72-31.264-30.72-81.376 0-112.64l369.856-371.2z"  horiz-adv-x="1024" />

    
    <glyph glyph-name="fangdajing" unicode="&#59108;" d="M889.6 57.6l-192 192C742.4 300.8 768 371.2 768 448c0 179.2-140.8 320-320 320S128 627.2 128 448s140.8-320 320-320c76.8 0 147.2 25.6 198.4 70.4l192-192c12.8-12.8 32-12.8 44.8 0C896 19.2 896 44.8 889.6 57.6zM192 448c0 140.8 115.2 256 256 256s256-115.2 256-256c0-140.8-115.2-256-256-256S192 307.2 192 448z"  horiz-adv-x="1024" />

    
    <glyph glyph-name="yonghutouxiang" unicode="&#58884;" d="M734.669741 804.70239C676.089932 863.284607 598.197457 895.546038 515.346919 895.546038c-82.857161 0-160.748432-32.261431-219.330649-90.843648-58.587033-58.582217-90.85027-136.474089-90.85027-219.319209 0-82.850539 32.262635-160.736993 90.85027-219.318608 20.912372-20.918393 44.302271-38.453742 69.489355-52.390507-64.983447-20.858186-125.898091-55.149202-178.681752-101.391951-90.938173-79.677017-150.404231-187.918139-167.442871-304.789363-2.470904-16.948931 9.270706-32.693117 26.220841-35.164623 1.520232-0.22096 3.02481-0.325721 4.515541-0.325721 15.147532 0 28.405761 11.11124 30.653899 26.546563 31.301728 214.735634 218.124698 376.671955 434.570819 376.671955 82.855957 0 160.741809 32.262033 219.328241 90.844249 58.588839 58.582217 90.849668 136.468069 90.849668 219.318608-0.000602 82.844518-32.261431 160.736391-90.85027 219.318607z m-219.322822-467.450579c-136.82871 0-248.142809 111.310486-248.142809 248.13137 0 136.816668 111.314701 248.131369 248.142809 248.131369 136.820883 0 248.141605-111.314701 248.141604-248.131369 0-136.820883-111.320722-248.131369-248.141604-248.13137z m491.840519-429.609745c-7.121911 52.992579-22.689689 104.17232-46.266832 152.111708-22.98651 46.729825-53.101554 89.42938-89.501027 126.921613-11.935477 12.289496-31.570854 12.576684-43.865166 0.641207-12.289496-11.929456-12.577286-31.571456-0.640003-43.855533 65.293514-67.244228 106.372893-151.642092 118.788222-244.07822 2.090996-15.579217 15.401004-26.889142 30.704472-26.889142 1.369112 0 2.764113 0.087903 4.168145 0.276351 16.974821 2.283057 28.888623 17.894787 26.612189 34.872016z m0 0"  horiz-adv-x="1024" />

    
    <glyph glyph-name="cuowu" unicode="&#58967;" d="M480 832C217.6 832 0 614.4 0 352s217.6-480 480-480 480 217.6 480 480S742.4 832 480 832z m204.8-614.4c19.2-19.2 19.2-44.8 0-64-19.2-19.2-44.8-19.2-64 0L486.4 288 345.6 147.2c-19.2-19.2-51.2-19.2-70.4 0-19.2 19.2-19.2 51.2 0 70.4L416 358.4 281.6 492.8c-19.2 19.2-19.2 44.8 0 64 19.2 19.2 44.8 19.2 64 0L480 422.4l140.8 140.8c19.2 19.2 51.2 19.2 70.4 0 19.2-19.2 19.2-51.2 0-70.4L550.4 352l134.4-134.4z"  horiz-adv-x="1024" />

    
    <glyph glyph-name="jia" unicode="&#58947;" d="M880.15737 448.280872H575.934072V752.50417c0 35.915501-29.109546 65.025048-65.025048 65.025048s-65.025048-29.109546-65.025047-65.025048v-304.223298H141.660679a65.025048 65.025048 0 0 1 0-130.050095h304.223298v-304.223298c0-35.915501 29.109546-65.025048 65.025047-65.025048s65.025048 29.109546 65.025048 65.025048V318.230777h304.216073a65.025048 65.025048 0 0 1 65.025047 65.025047 65.010598 65.010598 0 0 1-65.017822 65.025048z"  horiz-adv-x="1024" />

    
    <glyph glyph-name="icon_folder" unicode="&#58883;" d="M1334.635105 464.04819l-267.394169-543.939317a87.094284 87.094284 0 0 0-71.256051-47.994646H138.960497a30.108641 30.108641 0 0 0-26.685023 47.994646l267.394169 543.939317a87.094284 87.094284 0 0 0 71.256051 47.994645h857.024388a30.108641 30.108641 0 0 0 26.685023-47.994645zM1119.875064 608.0321260000001H322.524018L0-63.892912000000024V832.007139a63.992861 63.992861 0 0 0 63.992861 63.992861h415.953595a63.992861 63.992861 0 0 0 63.992861-63.992861v-63.992861h575.935747a63.992861 63.992861 0 0 0 63.992861-63.99286v-31.996431a63.992861 63.992861 0 0 0-63.992861-63.992861z"  horiz-adv-x="1340" />

    
    <glyph glyph-name="dian" unicode="&#58888;" d="M512 576a192.064 192.064 0 0 0 0-384 192 192 0 0 0 0 384z"  horiz-adv-x="1024" />

    
    <glyph glyph-name="gengduo" unicode="&#58956;" d="M512 597.3504a85.3504 85.3504 0 1 1 0 170.6496 85.3504 85.3504 0 0 1 0-170.6496zM512 384m-85.3504 0a85.3504 85.3504 0 1 1 170.7008 0 85.3504 85.3504 0 1 1-170.7008 0ZM512 0a85.3504 85.3504 0 1 1 0 170.7008 85.3504 85.3504 0 0 1 0-170.7008z"  horiz-adv-x="1024" />

    
    <glyph glyph-name="tongji" unicode="&#58912;" d="M901.949315 359.19490800000005H492.188095V772.982166a37.576356 37.576356 0 0 1-33.997656 33.550319h-3.578701A454.494978 454.494978 0 0 1 0.11676 341.748742a469.704456 469.704456 0 0 1 469.704456-469.704456 460.757704 460.757704 0 0 1 467.02043 453.600303 31.760968 31.760968 0 0 1-10.736102 24.603567 38.023694 38.023694 0 0 1-24.156229 8.946752z m-432.128099-429.891412a411.997908 411.997908 0 0 0-412.445246 412.445246 416.471284 416.471284 0 0 0 379.789603 412.445246v-419.602647a33.997656 33.997656 0 0 1 36.234344-36.234344h404.840507a414.234596 414.234596 0 0 0-408.419208-369.053501zM631.310081 841.424816v-338.187209h338.634546a376.210902 376.210902 0 0 1-338.634546 338.187209zM598.207101 896c-3.578701 0-10.736102-3.578701-14.314803-3.578701a17.893503 17.893503 0 0 1-7.157401-13.867465v-412.445245a16.55149 16.55149 0 0 1 17.893503-17.446166h411.550571a16.55149 16.55149 0 0 1 17.893503 17.446166v6.710063A428.996736 428.996736 0 0 1 598.207101 896z m32.655643-392.762393V841.424816a376.210902 376.210902 0 0 0 338.634545-338.187209z"  horiz-adv-x="1024" />

    
    <glyph glyph-name="home" unicode="&#58913;" d="M1057.53309 430.333788L632.845504 855.48704a139.699864 139.699864 0 0 1-196.045475 0L12.112444 430.333788a35.856298 35.856298 0 0 1-12.107322-27.474306v-491.277854a39.115962 39.115962 0 0 1 12.107322-27.474306 35.856298 35.856298 0 0 1 27.939973-11.641656h989.5407a39.581628 39.581628 0 0 1 39.581628 39.581628V404.722146a39.115962 39.115962 0 0 1-11.641655 25.611642z m-465.666212-481.964529h-116.416553v217.000455h118.744884z m395.81628 0h-316.653024v256.116416a39.581628 39.581628 0 0 1-39.581628 39.115962H435.40303a39.581628 39.581628 0 0 1-39.581628-39.115962v-253.788085H79.168378v437.260573l413.977263 412.580264a55.414279 55.414279 0 0 0 41.444293 17.695316 59.605275 59.605275 0 0 0 41.444292-17.695316l413.977263-412.580264zM475.450325 165.36971400000004h118.744884v-215.13779h-118.744884z"  horiz-adv-x="1069" />

    
    <glyph glyph-name="kaoping" unicode="&#58914;" d="M60.626588 386.671304m1.780869 0l187.436522 0q1.78087 0 1.78087-1.780869l0-446.998261q0-1.78087-1.78087-1.78087l-187.436522 0q-1.78087 0-1.780869 1.78087l0 446.998261q0 1.78087 1.780869 1.780869ZM250.289197-128A63.666087 63.666087 0 0 1 311.729197-62.107826000000045v445.217391A64.556522 64.556522 0 0 1 249.398762 450.782609H62.407457A64.556522 64.556522 0 0 1 0.077023 384.890435v-445.217392A64.556522 64.556522 0 0 1 62.407457-128zM60.626588 384.890435H249.398762v-445.217392H62.407457zM638.073544-128a60.549565 60.549565 0 0 1 59.213913 62.775652V833.224348A61.44 61.44 0 0 1 638.073544 896h-178.086956A61.44 61.44 0 0 1 400.772675 833.224348v-898.448696A61.44 61.44 0 0 1 459.986588-128z m-178.086956 60.994783V833.224348h178.086956v-898.448696zM1009.384849-128A60.994783 60.994783 0 0 1 1068.598762-65.22434799999996V518.0104349999999a61.44 61.44 0 0 1-59.213913 62.775652h-178.086957a61.44 61.44 0 0 1-59.213913-62.775652v-583.234783A61.44 61.44 0 0 1 831.297892-128z m-178.086957 646.010435h178.086957v-583.234783h-178.086957z"  horiz-adv-x="1068" />

    
    <glyph glyph-name="shenpi" unicode="&#58916;" d="M191.902832 565.205204h372.645012a15.137312 15.137312 0 0 1 14.246882 16.027743v31.610269a15.137312 15.137312 0 0 1-13.801667 16.027743H192.348047a15.137312 15.137312 0 0 1-14.246882-16.027743v-32.055484a15.137312 15.137312 0 0 1 13.801667-15.582528zM471.497895 437.873695H192.348047a15.137312 15.137312 0 0 1-13.801667-16.027743v-31.61027a15.137312 15.137312 0 0 1 13.801667-16.027742H418.517302a206.134577 206.134577 0 0 0 52.980593 63.665755zM367.762784 247.321645H192.348047a15.137312 15.137312 0 0 1-13.801667-16.027742v-32.055485a15.137312 15.137312 0 0 1 13.801667-16.027743H356.187192a178.086027 178.086027 0 0 0 2.226075 36.062421s4.452151 21.815538 3.116506 8.013871a108.632477 108.632477 0 0 0 6.233011 20.034678zM742.188656 896H59.228741A60.104034 60.104034 0 0 1 0.015137 834.560321v-856.593792A60.104034 60.104034 0 0 1 59.228741-83.47315100000003h445.215069A343.706033 343.706033 0 0 0 445.230206-22.033470999999963H89.058151a30.274625 30.274625 0 0 0-29.82941 30.71984V804.285696A30.274625 30.274625 0 0 0 89.058151 834.560321h623.301096a30.274625 30.274625 0 0 0 29.829409-30.71984v-284.937644a326.342645 326.342645 0 0 0 59.213605-10.685162V834.560321A60.104034 60.104034 0 0 1 742.188656 896zM734.62-78.575785a239.970922 239.970922 0 1 1-239.970922 239.970922 239.970922 239.970922 0 0 1 239.970922-239.970922z m44.521507 382.439744h22.260754v-94.385595a243.532642 243.532642 0 0 1 54.761453 26.267689l12.911237-18.253817a379.768453 379.768453 0 0 0-67.67269-30.274625v-130.0028c0-8.459086 4.006936-12.911237 12.020806-12.911237h15.137313A17.363388 17.363388 0 0 1 845.923767 50.09136999999998a127.776725 127.776725 0 0 1 7.568657 50.309303l20.479893-6.678226a128.22194 128.22194 0 0 0-12.911237-62.33011 34.28156 34.28156 0 0 0-26.712904-9.794731h-26.267689c-18.253818 0-27.158119 9.794732-27.15812 29.384194z m-81.029142-246.649148v244.423073h22.260753v-89.043014h44.521507v-21.815538h-44.521507V50.09136999999998a241.306567 241.306567 0 0 1 40.959786 15.137312l4.006936-20.925108a451.002864 451.002864 0 0 0-71.679626-22.260753l-5.787796 20.925108a13.356452 13.356452 0 0 1 12.020807 14.246882z m-102.399466 168.291296v21.370323h35.17199v57.877959h21.815539v-57.432744h30.719839v-21.370323h-28.938979v-69.008336l30.274625 12.020807v-21.370323l-30.274625-12.020807v-89.043014q0-27.158119-25.377259-27.158119h-27.158119l-4.452151 22.260754a216.374523 216.374523 0 0 1 24.041614 0c7.568656 0 11.130377 4.006936 11.130377 12.020807v73.905701l-33.836346-9.794732-4.897365 21.370324c12.911237 2.67129 26.267689 5.787796 39.178926 9.794731v76.576992zM734.62-127.99465699999996a289.389794 289.389794 0 1 1-289.389794 289.389794 287.608934 287.608934 0 0 1 289.389794-289.389794z m0 528.915501a239.970922 239.970922 0 1 0-239.970922-239.970922 239.970922 239.970922 0 0 0 239.970922 239.970922zM593.932039 139.13438399999995l5.342581-21.370324 33.836345 9.794732v-74.350917c0-8.013871-3.561721-12.020807-11.130377-12.020806a216.374523 216.374523 0 0 0-24.041614 0l4.452151-22.260754h27.158119q25.377259 0 25.377259 27.158119v89.043014l30.274625 12.020807v21.370323l-30.274625-12.020807v69.008336h30.71984v21.370323h-31.165055v57.877959h-21.815538v-57.432744h-35.171991v-21.370323h35.171991v-76.576992c-12.911237-4.006936-25.822474-7.123441-38.733711-10.239946zM767.1207 45.19400399999995l-4.006935 20.925108a241.306567 241.306567 0 0 0-40.959787-15.137312v138.907101h44.521507v21.815539h-44.521507v89.043013h-22.260753v-244.423072a13.356452 13.356452 0 0 0-10.239947-13.801667l5.787796-20.925108a451.002864 451.002864 0 0 1 71.679626 23.596398zM808.080487 23.378466000000003h26.267689a34.28156 34.28156 0 0 1 26.712904 9.794731 128.22194 128.22194 0 0 1 12.911237 62.33011l-20.479893 6.678226A127.776725 127.776725 0 0 0 845.923767 50.09136999999998a17.363388 17.363388 0 0 0-15.137312-6.678226h-15.137312c-8.013871 0-12.020807 4.452151-12.020807 12.911237v130.89323a379.768453 379.768453 0 0 1 67.67269 30.274625l-12.911237 18.253817a243.532642 243.532642 0 0 0-54.761453-26.267689V303.863959h-22.260753v-251.546514c0-19.144248 8.904301-28.938979 26.712904-28.938979z"  horiz-adv-x="1024" />

    
    <glyph glyph-name="daiban" unicode="&#58917;" d="M52.578462 122.88a31.113846 31.113846 0 0 1-8.664616-33.870769 29.932308 29.932308 0 0 1 27.963077-20.086154h417.083077a354.461538 354.461538 0 0 0-59.470769 61.44H138.830769A269.390769 269.390769 0 0 1 190.818462 265.84615399999996c3.150769 48.443077 2.756923 127.606154 1.96923 185.501538v44.11077A268.209231 268.209231 0 0 0 278.252308 693.169231a241.033846 241.033846 0 0 0 191.803077 63.409231 233.944615 233.944615 0 0 0 142.966153-71.68A354.461538 354.461538 0 0 0 684.701538 699.076923a444.258462 444.258462 0 0 1-160.68923 110.276923v3.150769a78.769231 78.769231 0 1 1-161.476923 0v-4.332307A304.443077 304.443077 0 0 1 238.867692 738.461538a330.436923 330.436923 0 0 1-106.338461-243.396923v-44.898461c0-56.713846 0-134.695385-1.969231-180.775385a246.547692 246.547692 0 0 0-77.981538-146.510769z m390.695384 711.68a20.873846 20.873846 0 0 0 19.298462-16.147692 310.744615 310.744615 0 0 1-39.384616 0 20.873846 20.873846 0 0 0 20.086154 16.147692zM745.353846 575.803077a240.64 240.64 0 0 1-39.384615 3.150769 233.944615 233.944615 0 1 1 0-467.889231 241.033846 241.033846 0 0 1 47.261538 4.726154h4.332308l10.633846 2.756923A258.756923 258.756923 0 0 1 883.2 187.07692299999997a229.612308 229.612308 0 0 1 15.36 295.384615 258.363077 258.363077 0 0 1-153.206154 93.341539z m-83.889231-122.092308l17.329231-7.876923a214.252308 214.252308 0 0 0-69.316923-80.738461l-5.513846 18.904615a187.864615 187.864615 0 0 1 57.501538 69.316923z m2.363077-113.427692v-139.421539h-18.904615v118.153847a275.692308 275.692308 0 0 0-32.689231-29.144616l-5.907692 18.904616A222.523077 222.523077 0 0 1 672.098462 389.907692l16.935384-7.876923a217.403077 217.403077 0 0 0-25.206154-42.141538zM711.483077 279.23692300000005l15.36 9.846154a360.369231 360.369231 0 0 0 35.446154-39.384615l-15.36-11.027693a354.461538 354.461538 0 0 1-35.446154 40.566154z m142.178461 20.48h-32.295384v-70.892308a24.024615 24.024615 0 0 0-26.781539-27.175384h-39.384615l-4.332308 18.904615h36.627693a12.603077 12.603077 0 0 1 13.784615 14.178462v64.984615h-107.126154v18.510769h107.126154v20.48h19.692308v-20.48h32.295384z m3.938462 51.987692h-165.021538v18.116923h72.073846v34.658462h-61.44V423.384615h61.44v29.932308h18.904615V423.384615h62.227692v-18.116923h-62.227692v-34.658461h73.649231zM433.033846 344.61538499999995a266.633846 266.633846 0 0 1 78.769231-191.015385 275.692308 275.692308 0 0 1 387.938461 0 267.421538 267.421538 0 0 1 0 382.424615 275.692308 275.692308 0 0 1-387.938461 0 266.633846 266.633846 0 0 1-78.769231-191.40923z m465.526154 138.24a229.612308 229.612308 0 0 0-15.36-295.384616 236.307692 236.307692 0 0 0-113.821538-68.529231l-10.633847-2.756923h-4.332307a241.033846 241.033846 0 0 0-47.261539-4.726153 233.944615 233.944615 0 1 0 0 467.88923 240.64 240.64 0 0 0 39.384616-3.150769 236.307692 236.307692 0 0 0 152.024615-92.947692zM315.667692 591.556923A180.381538 180.381538 0 0 1 278.252308 480.886154v-166.990769a16.541538 16.541538 0 0 1 5.12-11.815385 16.935385 16.935385 0 0 1 12.20923-4.726154 16.935385 16.935385 0 0 1 16.935385 16.541539v166.990769a147.692308 147.692308 0 0 0 30.326154 90.190769 16.541538 16.541538 0 0 1-3.150769 23.236923 17.329231 17.329231 0 0 1-24.024616-2.756923zM494.867692-128a120.123077 120.123077 0 0 1 118.153846 100.036923h-53.563076a78.769231 78.769231 0 0 0-64.196924-50.018461 78.769231 78.769231 0 0 0-63.803076 50.018461h-55.138462A120.123077 120.123077 0 0 1 494.867692-128zM678.793846 445.44l-17.329231 7.876923A187.864615 187.864615 0 0 0 603.963077 384l5.907692-18.904615a214.252308 214.252308 0 0 1 68.923077 80.344615zM606.326154 307.593846l5.907692-18.904615a275.692308 275.692308 0 0 1 32.689231 29.144615v-118.153846h18.904615v140.209231a217.403077 217.403077 0 0 1 24.812308 44.110769l-16.935385 7.876923a222.523077 222.523077 0 0 0-65.378461-84.283077zM783.556923 404.48h62.227692v17.723077h-62.227692v30.326154h-18.904615v-30.326154h-61.44v-17.723077h61.44v-34.658462h-72.073846v-18.116923h164.627692v18.116923h-73.649231v34.658462zM726.449231 288.68923099999995l-15.36-9.846154a354.461538 354.461538 0 0 0 35.446154-42.535385l15.36 11.027693a360.369231 360.369231 0 0 1-35.446154 41.353846zM820.972308 338.313846h-19.692308v-20.48h-107.126154v-18.510769h107.126154v-65.772308a12.603077 12.603077 0 0 0-13.784615-14.178461H750.867692l4.332308-18.904616h39.384615a24.024615 24.024615 0 0 1 26.781539 27.175385v70.892308h32.295384v18.510769h-32.295384z"  horiz-adv-x="1024" />

    
    <glyph glyph-name="starYes" unicode="&#58925;" d="M1029.12 488.106667l-337.92 48.924444L540.444444 841.955556 389.12 537.031111l-337.351111-48.924444 244.053333-237.226667-57.457778-335.075556 302.08 158.151112 302.08-158.151112-58.026666 335.075556 244.622222 237.226667zM707.697778 559.217778L540.444444 896 373.191111 559.217778 0 504.604444l270.222222-262.257777L206.506667-128l333.937777 174.648889L874.382222-128l-63.715555 370.346667L1080.888889 504.604444zM540.444444 73.955556l-302.08-158.151112 56.888889 335.075556L51.768889 488.106667l337.92 48.924444L540.444444 839.111111l151.324445-304.924444 337.92-48.924445-244.622222-237.226666 56.888889-335.075556z"  horiz-adv-x="1080" />

    
    <glyph glyph-name="you" unicode="&#58927;" d="M512 896a512 512 0 1 1 512-512 512 512 0 0 1-512 512z m0-853.333333a341.333333 341.333333 0 1 0 341.333333 341.333333 341.333333 341.333333 0 0 0-341.333333-341.333333z"  horiz-adv-x="1024" />

    
    <glyph glyph-name="zhong" unicode="&#58928;" d="M512 896a512 512 0 1 1 512-512 512 512 0 0 1-512 512z m0-853.333333a341.333333 341.333333 0 1 0 341.333333 341.333333 341.333333 341.333333 0 0 0-341.333333-341.333333z"  horiz-adv-x="1024" />

    
    <glyph glyph-name="starNo" unicode="&#58931;" d="M707.128889 559.217778L540.444444 896 373.191111 559.217778 0 504.604444l270.222222-262.257777L206.506667-128l333.937777 174.648889L874.382222-128l-63.715555 370.346667L1080.888889 504.604444z m134.826667-642.844445l-301.511112 157.582223-302.08-158.151112 56.888889 335.075556L51.768889 488.106667l337.92 48.924444L540.444444 839.111111l151.324445-304.924444 337.92-48.924445-244.622222-237.226666z"  horiz-adv-x="1080" />

    
    <glyph glyph-name="liang" unicode="&#58935;" d="M512 896a512 512 0 1 1 512-512 512 512 0 0 1-512 512z m0-853.333333a341.333333 341.333333 0 1 0 341.333333 341.333333 341.333333 341.333333 0 0 0-341.333333-341.333333z"  horiz-adv-x="1024" />

    
    <glyph glyph-name="cha" unicode="&#58936;" d="M512 896a512 512 0 1 1 512-512 512 512 0 0 1-512 512z m0-853.333333a341.333333 341.333333 0 1 0 341.333333 341.333333 341.333333 341.333333 0 0 0-341.333333-341.333333z"  horiz-adv-x="1024" />

    


  </font>
</defs>
</svg>
